<svg aria-hidden="true" style="position: absolute; width: 0; height: 0; overflow: hidden;" version="1.1" xmlns="http://www.w3.org/2000/svg" xmlns:xlink="http://www.w3.org/1999/xlink">
<defs>
<symbol id="icon-loupe-and-bug-svgrepo-com" viewBox="0 0 32 32">
<path d="M2.415 31.927c-0.619 0-1.238-0.235-1.708-0.706-0.942-0.942-0.942-2.475 0-3.417l7.286-7.286c-1.412-2.093-2.237-4.612-2.237-7.321 0-7.236 5.887-13.123 13.123-13.123s13.122 5.887 13.122 13.123-5.887 13.123-13.123 13.123c-2.785 0-5.369-0.872-7.496-2.357l-7.258 7.258c-0.471 0.471-1.090 0.706-1.708 0.706zM8.383 21.066l-7.207 7.207c-0.683 0.683-0.683 1.794 0 2.477s1.794 0.683 2.477 0l7.187-7.187c-0.926-0.719-1.753-1.559-2.457-2.497zM18.878 0.738c-6.869 0-12.458 5.588-12.458 12.458s5.588 12.458 12.458 12.458 12.458-5.588 12.458-12.458-5.588-12.458-12.458-12.458zM18.878 24.958c-6.486 0-11.762-5.277-11.762-11.762s5.276-11.762 11.762-11.762 11.762 5.277 11.762 11.762-5.277 11.762-11.762 11.762zM18.878 2.098c-6.119 0-11.097 4.978-11.097 11.097s4.978 11.097 11.097 11.097 11.097-4.978 11.097-11.097-4.978-11.097-11.097-11.097zM21.755 15.928c-0.175 0-0.322-0.137-0.332-0.315l-0.034-0.628c-0.001 0-0.002 0-0.002 0-0.698 0-1.329-0.259-1.723-0.776 0-0-0-0.001-0.001-0.001-0.389-0.512-0.473-1.181-0.294-1.847l-0.567-0.19c-0.174-0.059-0.268-0.247-0.21-0.421s0.247-0.267 0.421-0.21l0.599 0.201c0.154-0.294 0.358-0.577 0.61-0.835l-0.419-0.551c-0.111-0.146-0.083-0.355 0.063-0.466s0.355-0.083 0.466 0.063l0.395 0.52c0.256-0.184 0.525-0.331 0.799-0.441l-0.176-0.71c-0.044-0.178 0.065-0.358 0.243-0.403s0.358 0.065 0.403 0.243l0.169 0.682c0.912-0.171 1.788 0.070 2.285 0.723v0c0.388 0.51 0.49 1.181 0.287 1.891-0.051 0.177-0.119 0.35-0.203 0.519l0.64 0.36c0.16 0.090 0.217 0.293 0.126 0.453s-0.293 0.217-0.453 0.126l-0.669-0.377c-0.179 0.232-0.391 0.447-0.63 0.639l0.419 0.551c0.111 0.146 0.083 0.355-0.063 0.466s-0.355 0.083-0.466-0.063l-0.443-0.582c-0.308 0.17-0.628 0.29-0.945 0.361l0.036 0.667c0.010 0.183-0.131 0.34-0.314 0.35-0.006 0-0.012 0-0.018 0zM20.432 14.042c0.633 0.473 1.733 0.355 2.634-0.33 0.231-0.176 0.433-0.376 0.598-0.593l-1.153-0.659-2.079 1.582zM20.076 12.315c-0.162 0.42-0.185 0.843-0.047 1.198l2.079-1.582-0.328-1.287c-0.249 0.101-0.497 0.241-0.731 0.419-0.438 0.334-0.759 0.749-0.941 1.171-0.002 0.007-0.004 0.014-0.006 0.021-0.007 0.021-0.016 0.041-0.027 0.059zM22.772 11.844l1.229 0.703c0.038-0.090 0.071-0.181 0.097-0.272 0.144-0.503 0.081-0.966-0.177-1.305v0c-0.32-0.421-0.884-0.585-1.5-0.499l0.35 1.374zM9.242 13.528c-0.183 0-0.332-0.149-0.332-0.332 0-5.496 4.471-9.968 9.968-9.968 0.183 0 0.332 0.149 0.332 0.332s-0.149 0.332-0.332 0.332c-5.13 0-9.303 4.173-9.303 9.303 0 0.183-0.149 0.332-0.332 0.332z"></path>
</symbol>
</defs>
</svg>
