<svg aria-hidden="true" style="position: absolute; width: 0; height: 0; overflow: hidden;" version="1.1" xmlns="http://www.w3.org/2000/svg" xmlns:xlink="http://www.w3.org/1999/xlink">
<defs>
<symbol id="icon-loupe-seo-and-web-svgrepo-com" viewBox="0 0 32 32">
<path fill="#56ace0" style="fill: var(--color1, #56ace0)" d="M1.788 11.791c0 5.516 4.489 10.016 10.016 10.016 5.516 0 10.016-4.489 10.016-10.016s-4.499-10.016-10.021-10.016-10.011 4.489-10.011 10.016zM11.794 3.641c4.489 0 8.151 3.651 8.151 8.151s-3.651 8.151-8.151 8.151c-4.489 0-8.151-3.651-8.151-8.151s3.662-8.151 8.151-8.151z"></path>
<path fill="#ffc10d" style="fill: var(--color2, #ffc10d)" d="M21.43 18.572c0 0-0.005 0-0.005 0.005-0.774 1.101-1.739 2.060-2.84 2.84 0 0.005-0.005 0.005-0.005 0.011l8.198 8.198c0.806 0.78 2.097 0.806 2.85 0 0.785-0.785 0.785-2.065 0-2.85l-8.198-8.203z"></path>
<path fill="#ffc10d" style="fill: var(--color2, #ffc10d)" d="M10.935 9.573v4.426l2.613-2.208z"></path>
<path fill="#194f82" style="fill: var(--color3, #194f82)" d="M11.794 19.932c4.489 0 8.151-3.651 8.151-8.151s-3.657-8.145-8.151-8.145-8.151 3.656-8.151 8.156 3.662 8.14 8.151 8.14zM18.169 11.791c0 3.514-2.861 6.365-6.365 6.365s-6.375-2.861-6.375-6.365 2.85-6.375 6.365-6.375 6.375 2.861 6.375 6.375z"></path>
<path fill="#194f82" style="fill: var(--color3, #194f82)" d="M30.887 25.511l-8.519-8.519c0.774-1.57 1.217-3.34 1.217-5.211 0-6.491-5.29-11.781-11.791-11.781s-11.791 5.29-11.791 11.791 5.29 11.791 11.791 11.791c1.87 0 3.635-0.443 5.211-1.217l8.519 8.519c1.375 1.428 3.925 1.544 5.364 0 1.481-1.486 1.481-3.894 0-5.374zM29.628 29.626c-0.753 0.806-2.044 0.78-2.85 0l-8.203-8.203c0-0.005 0.005-0.005 0.005-0.011 1.101-0.78 2.060-1.739 2.84-2.84 0 0 0.005 0 0.005-0.005l8.198 8.198c0.79 0.785 0.79 2.071 0.005 2.861zM21.804 11.791c0 5.516-4.489 10.016-10.016 10.016-5.511-0.005-10.011-4.494-10.011-10.016s4.489-10.016 10.016-10.016c5.522 0 10.011 4.489 10.011 10.016z"></path>
<path fill="#194f82" style="fill: var(--color3, #194f82)" d="M9.676 16.718c0.348 0.142 0.664 0.090 0.948-0.127l4.879-4.125c0.2-0.169 0.316-0.416 0.316-0.68s-0.116-0.511-0.316-0.68l-4.874-4.12c-0.263-0.221-0.637-0.269-0.948-0.127s-0.516 0.458-0.516 0.806v8.256c-0.005 0.337 0.195 0.653 0.511 0.796zM10.935 9.573l2.613 2.213-2.613 2.213c0-0 0-4.426 0-4.426z"></path>
</symbol>
</defs>
</svg>
